<?xml version="1.0" standalone="no"?>
<!DOCTYPE svg PUBLIC "-//W3C//DTD SVG 20010904//EN"
 "http://www.w3.org/TR/2001/REC-SVG-20010904/DTD/svg10.dtd">
<svg version="1.0" xmlns="http://www.w3.org/2000/svg"
 width="700.000000pt" height="700.000000pt" viewBox="0 0 700.000000 700.000000"
 preserveAspectRatio="xMidYMid meet">
<metadata>
Created by potrace 1.14, written by Peter Selinger 2001-2017
</metadata>
<g transform="translate(0.000000,700.000000) scale(0.100000,-0.100000)"
fill="#000000" stroke="none">
<path d="M3375 6118 c-121 -16 -145 -21 -245 -55 -614 -207 -938 -862 -734
-1480 79 -236 249 -456 464 -598 129 -85 293 -152 415 -171 22 -3 60 -10 85
-14 47 -9 262 -5 315 5 95 18 173 38 228 59 466 175 772 621 761 1111 -2 110
-5 131 -25 235 -50 246 -218 512 -424 669 -22 17 -44 34 -50 39 -20 17 -135
81 -181 102 -187 84 -424 123 -609 98z m260 -593 c267 -69 449 -303 446 -575
-1 -155 -57 -286 -171 -401 -75 -75 -181 -139 -256 -154 -146 -29 -252 -24
-361 19 -358 140 -488 575 -265 886 73 101 216 198 334 225 78 18 204 18 273
0z"/>
<path d="M1306 4944 c-412 -80 -703 -414 -720 -829 -11 -246 81 -475 264 -656
289 -287 749 -331 1090 -104 195 130 349 361 376 564 3 25 8 49 10 53 6 10 5
207 -1 238 -39 201 -117 356 -248 488 -113 115 -276 206 -431 239 -94 20 -254
24 -340 7z m271 -595 c23 -10 62 -38 87 -62 173 -174 61 -475 -184 -492 -260
-17 -410 285 -238 480 46 53 82 74 153 90 61 14 125 9 182 -16z"/>
<path d="M5388 4944 c-219 -39 -428 -171 -559 -354 -66 -91 -131 -244 -145
-340 -3 -19 -7 -41 -10 -49 -2 -8 -5 -57 -5 -110 -1 -398 256 -739 643 -852
111 -32 323 -35 438 -5 479 124 759 598 635 1077 -64 247 -255 469 -492 572
-148 65 -347 89 -505 61z m276 -598 c140 -62 208 -245 142 -381 -136 -277
-541 -198 -552 108 -5 115 54 217 152 267 87 43 169 45 258 6z"/>
<path d="M3262 3484 c-257 -36 -500 -127 -717 -268 -157 -102 -284 -217 -403
-366 -42 -52 -77 -96 -78 -98 -1 -2 -26 10 -56 26 -323 178 -739 182 -1078 12
-296 -149 -533 -448 -606 -765 -27 -114 -29 -153 -29 -530 0 -390 1 -401 22
-447 39 -86 121 -149 215 -166 24 -4 1368 -8 2988 -7 2463 1 2952 3 2985 14
81 28 132 72 171 149 l29 57 1 380 c2 286 -2 400 -12 460 -87 495 -470 883
-954 965 -80 14 -287 18 -357 7 -132 -20 -276 -68 -392 -129 -29 -16 -54 -28
-55 -26 -78 112 -238 281 -351 371 -247 194 -509 305 -855 363 -72 12 -377 11
-468 -2z m391 -578 c464 -57 865 -414 976 -868 31 -129 33 -149 36 -370 l2
-208 -1167 0 -1167 0 2 208 c1 114 8 236 14 272 71 397 330 727 687 879 96 41
225 77 304 86 36 4 66 8 67 9 5 4 198 -2 246 -8z m-2033 -596 c46 -12 141 -59
172 -83 17 -13 17 -19 -2 -105 -18 -80 -26 -142 -35 -247 -2 -16 -3 -117 -4
-223 l-1 -192 -437 2 -438 3 1 180 c1 256 35 366 149 492 151 168 377 234 595
173z m4007 16 c163 -19 336 -138 421 -289 61 -109 74 -172 76 -384 l2 -193
-438 0 -438 0 -1 178 c0 203 -4 269 -19 367 -6 39 -13 83 -15 99 -2 16 -9 44
-16 63 -6 19 -9 40 -6 47 7 19 134 82 197 98 30 8 80 16 110 17 30 2 57 4 59
7 2 2 7 2 10 0 3 -2 30 -6 58 -10z"/>
</g>
</svg>
